<svg width="178" height="73" viewBox="0 0 178 73" fill="none" xmlns="http://www.w3.org/2000/svg">
<path d="M95.15 30.0547C94.4667 28.6047 93.7917 27.0964 93.125 25.5297C92.4583 23.963 91.825 22.413 91.225 20.8797C90.625 19.3464 90.0667 17.8797 89.55 16.4797C89.05 15.0797 88.6167 13.8297 88.25 12.7297H92.55C92.8833 13.7297 93.2417 14.813 93.625 15.9797C94.025 17.1297 94.425 18.2797 94.825 19.4297C95.2417 20.5797 95.6417 21.6797 96.025 22.7297C96.4083 23.7797 96.7667 24.688 97.1 25.4547C97.4167 24.688 97.7667 23.7797 98.15 22.7297C98.55 21.6797 98.95 20.5797 99.35 19.4297C99.7667 18.2797 100.167 17.1297 100.55 15.9797C100.95 14.813 101.317 13.7297 101.65 12.7297H105.8C105.417 13.8297 104.975 15.0797 104.475 16.4797C103.975 17.8797 103.425 19.3464 102.825 20.8797C102.225 22.413 101.592 23.963 100.925 25.5297C100.258 27.0964 99.5833 28.6047 98.9 30.0547H95.15ZM111.517 30.0547H107.792V16.9047H111.517V30.0547ZM111.867 13.1047C111.867 13.788 111.642 14.3297 111.192 14.7297C110.759 15.113 110.242 15.3047 109.642 15.3047C109.042 15.3047 108.517 15.113 108.067 14.7297C107.634 14.3297 107.417 13.788 107.417 13.1047C107.417 12.4214 107.634 11.888 108.067 11.5047C108.517 11.1047 109.042 10.9047 109.642 10.9047C110.242 10.9047 110.759 11.1047 111.192 11.5047C111.642 11.888 111.867 12.4214 111.867 13.1047ZM122.944 20.2047C122.61 20.1214 122.219 20.038 121.769 19.9547C121.319 19.8547 120.835 19.8047 120.319 19.8047C120.085 19.8047 119.802 19.8297 119.469 19.8797C119.152 19.913 118.91 19.9547 118.744 20.0047V30.0547H115.019V17.6047C115.685 17.3714 116.469 17.1547 117.369 16.9547C118.285 16.738 119.302 16.6297 120.419 16.6297C120.619 16.6297 120.86 16.6464 121.144 16.6797C121.427 16.6964 121.71 16.7297 121.994 16.7797C122.277 16.813 122.56 16.863 122.844 16.9297C123.127 16.9797 123.369 17.0464 123.569 17.1297L122.944 20.2047ZM125.44 13.6297L129.165 13.0297V16.9047H133.64V20.0047H129.165V24.6297C129.165 25.413 129.299 26.038 129.565 26.5047C129.849 26.9714 130.407 27.2047 131.24 27.2047C131.64 27.2047 132.049 27.1714 132.465 27.1047C132.899 27.0214 133.29 26.913 133.64 26.7797L134.165 29.6797C133.715 29.863 133.215 30.0214 132.665 30.1547C132.115 30.288 131.44 30.3547 130.64 30.3547C129.624 30.3547 128.782 30.2214 128.115 29.9547C127.449 29.6714 126.915 29.288 126.515 28.8047C126.115 28.3047 125.832 27.7047 125.665 27.0047C125.515 26.3047 125.44 25.5297 125.44 24.6797V13.6297ZM147.899 29.6047C147.265 29.788 146.449 29.9547 145.449 30.1047C144.449 30.2714 143.399 30.3547 142.299 30.3547C141.182 30.3547 140.249 30.2047 139.499 29.9047C138.765 29.6047 138.182 29.188 137.749 28.6547C137.315 28.1047 137.007 27.4547 136.824 26.7047C136.64 25.9547 136.549 25.1297 136.549 24.2297V16.9047H140.274V23.7797C140.274 24.9797 140.432 25.8464 140.749 26.3797C141.065 26.913 141.657 27.1797 142.524 27.1797C142.79 27.1797 143.074 27.1714 143.374 27.1547C143.674 27.1214 143.94 27.088 144.174 27.0547V16.9047H147.899V29.6047ZM156.421 27.4547C156.787 27.4547 157.137 27.4464 157.471 27.4297C157.804 27.413 158.071 27.388 158.271 27.3547V24.5297C158.121 24.4964 157.896 24.463 157.596 24.4297C157.296 24.3964 157.021 24.3797 156.771 24.3797C156.421 24.3797 156.087 24.4047 155.771 24.4547C155.471 24.488 155.204 24.563 154.971 24.6797C154.737 24.7964 154.554 24.9547 154.421 25.1547C154.287 25.3547 154.221 25.6047 154.221 25.9047C154.221 26.488 154.412 26.8964 154.796 27.1297C155.196 27.3464 155.737 27.4547 156.421 27.4547ZM156.121 16.5547C157.221 16.5547 158.137 16.6797 158.871 16.9297C159.604 17.1797 160.187 17.538 160.621 18.0047C161.071 18.4714 161.387 19.038 161.571 19.7047C161.754 20.3714 161.846 21.113 161.846 21.9297V29.6797C161.312 29.7964 160.571 29.9297 159.621 30.0797C158.671 30.2464 157.521 30.3297 156.171 30.3297C155.321 30.3297 154.546 30.2547 153.846 30.1047C153.162 29.9547 152.571 29.713 152.071 29.3797C151.571 29.0297 151.187 28.5797 150.921 28.0297C150.654 27.4797 150.521 26.8047 150.521 26.0047C150.521 25.238 150.671 24.588 150.971 24.0547C151.287 23.5214 151.704 23.0964 152.221 22.7797C152.737 22.463 153.329 22.238 153.996 22.1047C154.662 21.9547 155.354 21.8797 156.071 21.8797C156.554 21.8797 156.979 21.9047 157.346 21.9547C157.729 21.988 158.037 22.038 158.271 22.1047V21.7547C158.271 21.1214 158.079 20.613 157.696 20.2297C157.312 19.8464 156.646 19.6547 155.696 19.6547C155.062 19.6547 154.437 19.7047 153.821 19.8047C153.204 19.888 152.671 20.013 152.221 20.1797L151.746 17.1797C151.962 17.113 152.229 17.0464 152.546 16.9797C152.879 16.8964 153.237 16.8297 153.621 16.7797C154.004 16.713 154.404 16.663 154.821 16.6297C155.254 16.5797 155.687 16.5547 156.121 16.5547ZM170.464 30.3047C169.381 30.288 168.497 30.1714 167.814 29.9547C167.147 29.738 166.614 29.438 166.214 29.0547C165.831 28.6547 165.564 28.1797 165.414 27.6297C165.281 27.063 165.214 26.4297 165.214 25.7297V11.2547L168.939 10.6547V24.9797C168.939 25.313 168.964 25.613 169.014 25.8797C169.064 26.1464 169.156 26.3714 169.289 26.5547C169.439 26.738 169.647 26.888 169.914 27.0047C170.181 27.1214 170.539 27.1964 170.989 27.2297L170.464 30.3047ZM98.45 45.7297C96.6333 45.7297 95.3167 46.238 94.5 47.2547C93.7 48.2547 93.3 49.6297 93.3 51.3797C93.3 52.2297 93.4 53.0047 93.6 53.7047C93.8 54.388 94.1 54.9797 94.5 55.4797C94.9 55.9797 95.4 56.3714 96 56.6547C96.6 56.9214 97.3 57.0547 98.1 57.0547C98.5333 57.0547 98.9 57.0464 99.2 57.0297C99.5167 57.013 99.7917 56.9797 100.025 56.9297V50.9047H103.925V59.4797C103.458 59.663 102.708 59.8547 101.675 60.0547C100.642 60.2714 99.3667 60.3797 97.85 60.3797C96.55 60.3797 95.3667 60.1797 94.3 59.7797C93.25 59.3797 92.35 58.7964 91.6 58.0297C90.85 57.263 90.2667 56.3214 89.85 55.2047C89.45 54.088 89.25 52.813 89.25 51.3797C89.25 49.9297 89.475 48.6464 89.925 47.5297C90.375 46.413 90.9917 45.4714 91.775 44.7047C92.5583 43.9214 93.475 43.3297 94.525 42.9297C95.5917 42.5297 96.725 42.3297 97.925 42.3297C98.7417 42.3297 99.475 42.388 100.125 42.5047C100.792 42.6047 101.358 42.7297 101.825 42.8797C102.308 43.013 102.7 43.1547 103 43.3047C103.317 43.4547 103.542 43.5714 103.675 43.6547L102.55 46.7797C102.017 46.4964 101.4 46.2547 100.7 46.0547C100.017 45.838 99.2667 45.7297 98.45 45.7297ZM112.754 42.5297C115.337 42.5297 117.32 42.988 118.704 43.9047C120.087 44.8047 120.779 46.288 120.779 48.3547C120.779 50.438 120.079 51.9464 118.679 52.8797C117.279 53.7964 115.279 54.2547 112.679 54.2547H111.454V60.0547H107.554V42.9797C108.404 42.813 109.304 42.6964 110.254 42.6297C111.204 42.563 112.037 42.5297 112.754 42.5297ZM113.004 45.8547C112.72 45.8547 112.437 45.863 112.154 45.8797C111.887 45.8964 111.654 45.913 111.454 45.9297V50.9297H112.679C114.029 50.9297 115.045 50.7464 115.729 50.3797C116.412 50.013 116.754 49.3297 116.754 48.3297C116.754 47.8464 116.662 47.4464 116.479 47.1297C116.312 46.813 116.062 46.563 115.729 46.3797C115.412 46.1797 115.02 46.0464 114.554 45.9797C114.087 45.8964 113.57 45.8547 113.004 45.8547ZM128.368 57.0797C128.918 57.0797 129.368 57.038 129.718 56.9547C130.084 56.8547 130.376 56.7297 130.593 56.5797C130.809 56.413 130.959 56.2214 131.043 56.0047C131.126 55.788 131.168 55.5464 131.168 55.2797C131.168 54.713 130.901 54.2464 130.368 53.8797C129.834 53.4964 128.918 53.088 127.618 52.6547C127.051 52.4547 126.484 52.2297 125.918 51.9797C125.351 51.713 124.843 51.388 124.393 51.0047C123.943 50.6047 123.576 50.1297 123.293 49.5797C123.009 49.013 122.868 48.3297 122.868 47.5297C122.868 46.7297 123.018 46.013 123.318 45.3797C123.618 44.7297 124.043 44.1797 124.593 43.7297C125.143 43.2797 125.809 42.938 126.593 42.7047C127.376 42.4547 128.259 42.3297 129.243 42.3297C130.409 42.3297 131.418 42.4547 132.268 42.7047C133.118 42.9547 133.818 43.2297 134.368 43.5297L133.243 46.6047C132.759 46.3547 132.218 46.138 131.618 45.9547C131.034 45.7547 130.326 45.6547 129.493 45.6547C128.559 45.6547 127.884 45.788 127.468 46.0547C127.068 46.3047 126.868 46.6964 126.868 47.2297C126.868 47.5464 126.943 47.813 127.093 48.0297C127.243 48.2464 127.451 48.4464 127.718 48.6297C128.001 48.7964 128.318 48.9547 128.668 49.1047C129.034 49.238 129.434 49.3797 129.868 49.5297C130.768 49.863 131.551 50.1964 132.218 50.5297C132.884 50.8464 133.434 51.2214 133.868 51.6547C134.318 52.088 134.651 52.5964 134.868 53.1797C135.084 53.763 135.193 54.4714 135.193 55.3047C135.193 56.9214 134.626 58.1797 133.493 59.0797C132.359 59.963 130.651 60.4047 128.368 60.4047C127.601 60.4047 126.909 60.3547 126.293 60.2547C125.676 60.1714 125.126 60.063 124.643 59.9297C124.176 59.7964 123.768 59.6547 123.418 59.5047C123.084 59.3547 122.801 59.213 122.568 59.0797L123.668 55.9797C124.184 56.263 124.818 56.5214 125.568 56.7547C126.334 56.9714 127.268 57.0797 128.368 57.0797Z" fill="#383A54"/>
<g filter="url(#filter0_i)">
<g clip-path="url(#clip0)">
<rect width="71.9715" height="71.9715" rx="35.9857" transform="matrix(1 0 0 -1 0.242676 72.0403)" fill="url(#paint0_linear)"/>
<g filter="url(#filter1_i)">
<path d="M58.3268 56.374C55.3254 54.8292 54.2738 54.1684 51.436 53.4964C48.5416 52.8111 45.1958 52.4472 43.836 52.9929C35.4118 56.374 21.2225 63.3954 14.1886 68.5467L14.5735 71.0742C31.5815 60.6912 42.0247 56.374 44.4764 55.8725C46.2305 55.6426 48.8781 55.404 51.436 56.374C54.3804 57.4906 54.3994 57.3695 58.3268 59.7214C64.1971 63.2368 79.2555 69.2129 92.5265 64.9945C109.115 59.7214 120.543 45.8253 132.524 48.5901C142.108 50.8019 145.979 55.5328 146.716 57.6217L147.84 51.6275C134.218 44.37 127.652 42.0371 115.56 49.7052C96.0632 62.0692 83.4777 69.3188 58.3268 56.374Z" fill="#E8E6F3"/>
</g>
<g filter="url(#filter2_i)">
<path d="M6.73375 60.8757L12.4087 72.1953H15.8487C15.8487 71.9281 14.5995 69.1007 14.1956 68.5014C11.2777 64.7417 5.89684 55.7468 7.71693 49.8453C9.99205 42.4684 18.8167 37.9571 19.2993 27.3894C20.689 18.6612 20.2159 16.0741 19.2993 10.4944C18.3828 4.91468 21.836 -2.60432 23.6772 -5.66637H20.445C18.3619 -2.3208 15.7457 5.35182 16.58 10.4944C18.0724 19.6934 17.3749 23.7991 16.58 27.3894C16.3583 30.9819 15.1164 33.6431 13.9189 35.5503C11.2577 40.3404 7.44339 41.9371 5.40316 47.969C3.77098 52.7946 5.61015 58.5841 6.73375 60.8757Z" fill="#E8E6F3"/>
</g>
<g filter="url(#filter3_i)">
<path d="M0.0279541 27.3894C5.15809 27.3746 15.6933 27.3539 16.7933 27.3894H19.5126C23.7181 27.2871 36.2657 24.4202 39.4371 36.1946C41.9742 45.6142 43.5736 51.2882 44.0562 52.9478L44.6966 55.8273C44.8852 56.4839 45.3624 58.5569 45.636 61.5167C47.4212 61.5167 48.3448 61.4967 48.5993 61.4967L45.9462 45.0428C44.8701 43.2898 43.1137 38.4716 44.6966 33.223C46.2795 27.9744 54.5897 27.0789 58.547 27.2871C66.4841 28.0342 83.7787 32.6312 89.4598 45.0428C95.1408 57.4543 83.7787 68.7001 77.3875 72.7715H84.9149C87.3294 69.3155 92.4991 61.6366 93.8626 58.5688C95.5669 54.7341 96.8451 47.3487 89.4598 37.1228C83.661 29.0937 65.9634 24.0256 58.547 23.442C44.9569 22.9294 41.7286 30.4113 41.1559 31.1403C37.8234 24.6837 31.1543 23.3179 28.2363 23.442H0.0279541V27.3894Z" fill="#E8E6F3"/>
</g>
<g filter="url(#filter4_d)">
<path d="M41.9318 -4.70336V34.0637L41.6855 50.1956C41.6855 55.357 42.0672 65.6543 41.9318 72.5183H48.7354V51.6086V46.8038V-4.70336H41.9318Z" fill="#E8E6F3"/>
</g>
<g filter="url(#filter5_d)">
<path d="M35.9568 10.7959C25.185 10.7959 16.4215 19.5594 16.4215 30.3311C16.4215 34.0507 17.4351 37.9997 19.434 42.0682C21.019 45.2943 23.2252 48.6051 25.9913 51.9087C30.6872 57.5171 35.3084 61.1157 35.5028 61.2663C35.6364 61.3696 35.7967 61.4213 35.9568 61.4213C36.1169 61.4213 36.2771 61.3696 36.4107 61.2663C36.6052 61.1158 41.2264 57.5171 45.9222 51.9087C48.6882 48.605 50.8945 45.2942 52.4795 42.0682C54.4785 37.9997 55.4921 34.0507 55.4921 30.3311C55.4921 19.5594 46.7286 10.7959 35.9568 10.7959ZM35.9568 23.5772C39.6808 23.5772 42.7107 26.6069 42.7107 30.3311C42.7107 34.0551 39.6809 37.0849 35.9568 37.0849C32.2326 37.0849 29.2029 34.0552 29.2029 30.3311C29.2029 26.6069 32.2326 23.5772 35.9568 23.5772Z" fill="url(#paint1_linear)"/>
</g>
<path opacity="0.05" d="M35.9568 10.7959C35.2238 10.7959 34.5004 10.8378 33.7881 10.9169C43.5429 11.9993 51.1547 20.2924 51.1547 30.3312C51.1547 34.0508 50.1412 37.9998 48.1421 42.0683C46.5571 45.2944 44.351 48.6052 41.5848 51.9088C38.572 55.5071 35.59 58.278 33.7881 59.8419C34.7947 60.7155 35.4331 61.2124 35.5028 61.2663C35.6364 61.3696 35.7967 61.4213 35.9568 61.4213C36.1169 61.4213 36.2771 61.3696 36.4107 61.2663C36.6052 61.1158 41.2264 57.5171 45.9222 51.9087C48.6882 48.605 50.8945 45.2942 52.4795 42.0682C54.4785 37.9997 55.4921 34.0507 55.4921 30.3311C55.4921 19.5594 46.7286 10.7959 35.9568 10.7959Z" fill="black"/>
<circle cx="35.9568" cy="30.5294" r="8.68324" fill="#F9F9FB"/>
<path d="M37.5331 30.1818C36.6008 30.9105 36.5841 31.4191 36.5841 32.3005C36.5841 32.6225 36.4145 32.9955 35.584 32.9955C34.889 32.9955 34.6518 32.741 34.6518 31.8597C34.6518 30.402 35.2959 29.7073 35.7873 29.2834C36.3466 28.809 37.2958 28.2833 37.2958 27.3681C37.2958 26.5885 36.6178 26.2155 35.7704 26.2155C34.0416 26.2155 34.4145 27.5205 33.4992 27.5205C33.0415 27.5205 32.4822 27.2154 32.4822 26.5546C32.4822 25.6393 33.5332 24.2832 35.8212 24.2832C37.9908 24.2832 39.4315 25.4866 39.4315 27.0799C39.4315 28.6733 37.9908 29.8258 37.5331 30.1818ZM36.9059 35.4699C36.9059 36.1649 36.3299 36.7751 35.601 36.7751C34.872 36.7751 34.3127 36.1647 34.3127 35.4699C34.3127 34.7579 34.889 34.1647 35.601 34.1647C36.3127 34.1649 36.9059 34.7582 36.9059 35.4699Z" fill="url(#paint2_linear)"/>
</g>
</g>
<defs>
<filter id="filter0_i" x="0.242676" y="0.0688477" width="71.9715" height="71.9715" filterUnits="userSpaceOnUse" color-interpolation-filters="sRGB">
<feFlood flood-opacity="0" result="BackgroundImageFix"/>
<feBlend mode="normal" in="SourceGraphic" in2="BackgroundImageFix" result="shape"/>
<feColorMatrix in="SourceAlpha" type="matrix" values="0 0 0 0 0 0 0 0 0 0 0 0 0 0 0 0 0 0 127 0" result="hardAlpha"/>
<feOffset/>
<feGaussianBlur stdDeviation="5"/>
<feComposite in2="hardAlpha" operator="arithmetic" k2="-1" k3="1"/>
<feColorMatrix type="matrix" values="0 0 0 0 0.220083 0 0 0 0 0.633333 0 0 0 0 0.562402 0 0 0 1 0"/>
<feBlend mode="normal" in2="shape" result="effect1_innerShadow"/>
</filter>
<filter id="filter1_i" x="14.1886" y="44.9575" width="133.651" height="26.1169" filterUnits="userSpaceOnUse" color-interpolation-filters="sRGB">
<feFlood flood-opacity="0" result="BackgroundImageFix"/>
<feBlend mode="normal" in="SourceGraphic" in2="BackgroundImageFix" result="shape"/>
<feColorMatrix in="SourceAlpha" type="matrix" values="0 0 0 0 0 0 0 0 0 0 0 0 0 0 0 0 0 0 127 0" result="hardAlpha"/>
<feOffset/>
<feGaussianBlur stdDeviation="0.672322"/>
<feComposite in2="hardAlpha" operator="arithmetic" k2="-1" k3="1"/>
<feColorMatrix type="matrix" values="0 0 0 0 0.674333 0 0 0 0 0.85 0 0 0 0 0.778299 0 0 0 1 0"/>
<feBlend mode="normal" in2="shape" result="effect1_innerShadow"/>
</filter>
<filter id="filter2_i" x="4.75659" y="-5.6665" width="18.9206" height="77.8617" filterUnits="userSpaceOnUse" color-interpolation-filters="sRGB">
<feFlood flood-opacity="0" result="BackgroundImageFix"/>
<feBlend mode="normal" in="SourceGraphic" in2="BackgroundImageFix" result="shape"/>
<feColorMatrix in="SourceAlpha" type="matrix" values="0 0 0 0 0 0 0 0 0 0 0 0 0 0 0 0 0 0 127 0" result="hardAlpha"/>
<feOffset/>
<feGaussianBlur stdDeviation="0.672322"/>
<feComposite in2="hardAlpha" operator="arithmetic" k2="-1" k3="1"/>
<feColorMatrix type="matrix" values="0 0 0 0 0.674333 0 0 0 0 0.85 0 0 0 0 0.778299 0 0 0 1 0"/>
<feBlend mode="normal" in2="shape" result="effect1_innerShadow"/>
</filter>
<filter id="filter3_i" x="0.0279541" y="23.417" width="95.1485" height="49.3546" filterUnits="userSpaceOnUse" color-interpolation-filters="sRGB">
<feFlood flood-opacity="0" result="BackgroundImageFix"/>
<feBlend mode="normal" in="SourceGraphic" in2="BackgroundImageFix" result="shape"/>
<feColorMatrix in="SourceAlpha" type="matrix" values="0 0 0 0 0 0 0 0 0 0 0 0 0 0 0 0 0 0 127 0" result="hardAlpha"/>
<feOffset/>
<feGaussianBlur stdDeviation="0.672322"/>
<feComposite in2="hardAlpha" operator="arithmetic" k2="-1" k3="1"/>
<feColorMatrix type="matrix" values="0 0 0 0 0.674333 0 0 0 0 0.85 0 0 0 0 0.778299 0 0 0 0.2 0"/>
<feBlend mode="normal" in2="shape" result="effect1_innerShadow"/>
</filter>
<filter id="filter4_d" x="39.7646" y="-7.5845" width="12.8126" height="82.9844" filterUnits="userSpaceOnUse" color-interpolation-filters="sRGB">
<feFlood flood-opacity="0" result="BackgroundImageFix"/>
<feColorMatrix in="SourceAlpha" type="matrix" values="0 0 0 0 0 0 0 0 0 0 0 0 0 0 0 0 0 0 127 0" result="hardAlpha"/>
<feOffset dx="0.960459"/>
<feGaussianBlur stdDeviation="1.44069"/>
<feComposite in2="hardAlpha" operator="out"/>
<feColorMatrix type="matrix" values="0 0 0 0 0.364706 0 0 0 0 0.74902 0 0 0 0 0.592157 0 0 0 1 0"/>
<feBlend mode="normal" in2="BackgroundImageFix" result="effect1_dropShadow"/>
<feBlend mode="normal" in="SourceGraphic" in2="effect1_dropShadow" result="shape"/>
</filter>
<filter id="filter5_d" x="12.4215" y="6.7959" width="47.0705" height="58.6254" filterUnits="userSpaceOnUse" color-interpolation-filters="sRGB">
<feFlood flood-opacity="0" result="BackgroundImageFix"/>
<feColorMatrix in="SourceAlpha" type="matrix" values="0 0 0 0 0 0 0 0 0 0 0 0 0 0 0 0 0 0 127 0" result="hardAlpha"/>
<feOffset/>
<feGaussianBlur stdDeviation="2"/>
<feComposite in2="hardAlpha" operator="out"/>
<feColorMatrix type="matrix" values="0 0 0 0 0.286275 0 0 0 0 0.792157 0 0 0 0 0.717647 0 0 0 1 0"/>
<feBlend mode="normal" in2="BackgroundImageFix" result="effect1_dropShadow"/>
<feBlend mode="normal" in="SourceGraphic" in2="effect1_dropShadow" result="shape"/>
</filter>
<linearGradient id="paint0_linear" x1="-1.88383" y1="1.81739e-06" x2="89.2855" y2="72.9859" gradientUnits="userSpaceOnUse">
<stop stop-color="#43D4CC"/>
<stop stop-color="#43D4CC"/>
<stop offset="0.492708" stop-color="#64DCB1"/>
<stop offset="1" stop-color="#8BE58B"/>
</linearGradient>
<linearGradient id="paint1_linear" x1="13.6016" y1="21.8323" x2="49.3818" y2="47.2093" gradientUnits="userSpaceOnUse">
<stop stop-color="#F66993"/>
<stop offset="0.497917" stop-color="#F68C8F"/>
<stop offset="1" stop-color="#F3A787"/>
</linearGradient>
<linearGradient id="paint2_linear" x1="31.9806" y1="27.0065" x2="39.5639" y2="30.8834" gradientUnits="userSpaceOnUse">
<stop stop-color="#F66993"/>
<stop offset="0.497917" stop-color="#F68C8F"/>
<stop offset="1" stop-color="#F3A787"/>
</linearGradient>
<clipPath id="clip0">
<rect width="71.9715" height="71.9715" rx="35.9857" transform="matrix(1 0 0 -1 0.242676 72.0403)" fill="white"/>
</clipPath>
</defs>
</svg>
